<svg xmlns="http://www.w3.org/2000/svg" xmlns:xlink="http://www.w3.org/1999/xlink" width="200" height="200" preserveAspectRatio="none" viewBox="0 0 200 200"><line x1="-180" x2="20" y1="200" y2="0" stroke="#bbb" stroke-width=".25"/><line x1="-160" x2="40" y1="200" y2="0" stroke="#bbb" stroke-width=".25"/><line x1="-140" x2="60" y1="200" y2="0" stroke="#bbb" stroke-width=".25"/><line x1="-120" x2="80" y1="200" y2="0" stroke="#bbb" stroke-width=".25"/><line x1="-100" x2="100" y1="200" y2="0" stroke="#bbb" stroke-width=".25"/><line x1="-80" x2="120" y1="200" y2="0" stroke="#bbb" stroke-width=".25"/><line x1="-60" x2="140" y1="200" y2="0" stroke="#bbb" stroke-width=".25"/><line x1="-40" x2="160" y1="200" y2="0" stroke="#bbb" stroke-width=".25"/><line x1="-20" x2="180" y1="200" y2="0" stroke="#bbb" stroke-width=".25"/><line x1="0" x2="200" y1="200" y2="0" stroke="#bbb" stroke-width=".25"/><line x1="20" x2="220" y1="200" y2="0" stroke="#bbb" stroke-width=".25"/><line x1="40" x2="240" y1="200" y2="0" stroke="#bbb" stroke-width=".25"/><line x1="60" x2="260" y1="200" y2="0" stroke="#bbb" stroke-width=".25"/><line x1="80" x2="280" y1="200" y2="0" stroke="#bbb" stroke-width=".25"/><line x1="100" x2="300" y1="200" y2="0" stroke="#bbb" stroke-width=".25"/><line x1="120" x2="320" y1="200" y2="0" stroke="#bbb" stroke-width=".25"/><line x1="140" x2="340" y1="200" y2="0" stroke="#bbb" stroke-width=".25"/><line x1="160" x2="360" y1="200" y2="0" stroke="#bbb" stroke-width=".25"/><line x1="180" x2="380" y1="200" y2="0" stroke="#bbb" stroke-width=".25"/></svg>